solid ASCII
  facet normal 0.000000e+00 0.000000e+00 -1.000000e+00
    outer loop
      vertex   3.800000e-01 0.000000e+00 1.700000e+01
      vertex   2.800000e-01 0.000000e+00 1.700000e+01
      vertex   3.800000e-01 2.000000e+00 1.700000e+01
    endloop
  endfacet
  facet normal -0.000000e+00 0.000000e+00 -1.000000e+00
    outer loop
      vertex   3.800000e-01 2.000000e+00 1.700000e+01
      vertex   2.800000e-01 0.000000e+00 1.700000e+01
      vertex   2.800000e-01 2.000000e+00 1.700000e+01
    endloop
  endfacet
  facet normal 1.000000e+00 -0.000000e+00 0.000000e+00
    outer loop
      vertex   3.800000e-01 0.000000e+00 1.710000e+01
      vertex   3.800000e-01 0.000000e+00 1.700000e+01
      vertex   3.800000e-01 2.000000e+00 1.710000e+01
    endloop
  endfacet
  facet normal 1.000000e+00 0.000000e+00 0.000000e+00
    outer loop
      vertex   3.800000e-01 2.000000e+00 1.710000e+01
      vertex   3.800000e-01 0.000000e+00 1.700000e+01
      vertex   3.800000e-01 2.000000e+00 1.700000e+01
    endloop
  endfacet
  facet normal 0.000000e+00 0.000000e+00 1.000000e+00
    outer loop
      vertex   2.800000e-01 0.000000e+00 1.710000e+01
      vertex   3.800000e-01 0.000000e+00 1.710000e+01
      vertex   2.800000e-01 2.000000e+00 1.710000e+01
    endloop
  endfacet
  facet normal -0.000000e+00 0.000000e+00 1.000000e+00
    outer loop
      vertex   2.800000e-01 2.000000e+00 1.710000e+01
      vertex   3.800000e-01 0.000000e+00 1.710000e+01
      vertex   3.800000e-01 2.000000e+00 1.710000e+01
    endloop
  endfacet
  facet normal -1.000000e+00 0.000000e+00 0.000000e+00
    outer loop
      vertex   2.800000e-01 0.000000e+00 1.700000e+01
      vertex   2.800000e-01 0.000000e+00 1.710000e+01
      vertex   2.800000e-01 2.000000e+00 1.700000e+01
    endloop
  endfacet
  facet normal -1.000000e+00 0.000000e+00 0.000000e+00
    outer loop
      vertex   2.800000e-01 2.000000e+00 1.700000e+01
      vertex   2.800000e-01 0.000000e+00 1.710000e+01
      vertex   2.800000e-01 2.000000e+00 1.710000e+01
    endloop
  endfacet
  facet normal 0.000000e+00 1.000000e+00 0.000000e+00
    outer loop
      vertex   2.800000e-01 2.000000e+00 1.700000e+01
      vertex   2.800000e-01 2.000000e+00 1.710000e+01
      vertex   3.800000e-01 2.000000e+00 1.700000e+01
    endloop
  endfacet
  facet normal 0.000000e+00 1.000000e+00 -0.000000e+00
    outer loop
      vertex   3.800000e-01 2.000000e+00 1.700000e+01
      vertex   2.800000e-01 2.000000e+00 1.710000e+01
      vertex   3.800000e-01 2.000000e+00 1.710000e+01
    endloop
  endfacet
  facet normal 0.000000e+00 -1.000000e+00 0.000000e+00
    outer loop
      vertex   2.800000e-01 0.000000e+00 1.700000e+01
      vertex   3.800000e-01 0.000000e+00 1.700000e+01
      vertex   2.800000e-01 0.000000e+00 1.710000e+01
    endloop
  endfacet
  facet normal 0.000000e+00 -1.000000e+00 0.000000e+00
    outer loop
      vertex   2.800000e-01 0.000000e+00 1.710000e+01
      vertex   3.800000e-01 0.000000e+00 1.700000e+01
      vertex   3.800000e-01 0.000000e+00 1.710000e+01
    endloop
  endfacet
  facet normal -1.000000e+00 0.000000e+00 0.000000e+00
    outer loop
      vertex   0.000000e+00 0.000000e+00 1.740000e+01
      vertex   0.000000e+00 2.000000e+00 1.740000e+01
      vertex   0.000000e+00 0.000000e+00 1.735000e+01
    endloop
  endfacet
  facet normal -1.000000e+00 0.000000e+00 0.000000e+00
    outer loop
      vertex   0.000000e+00 0.000000e+00 1.735000e+01
      vertex   0.000000e+00 2.000000e+00 1.740000e+01
      vertex   0.000000e+00 2.000000e+00 1.735000e+01
    endloop
  endfacet
  facet normal 0.000000e+00 0.000000e+00 -1.000000e+00
    outer loop
      vertex   0.000000e+00 0.000000e+00 1.735000e+01
      vertex   0.000000e+00 2.000000e+00 1.735000e+01
      vertex   5.000000e-02 0.000000e+00 1.735000e+01
    endloop
  endfacet
  facet normal 0.000000e+00 0.000000e+00 -1.000000e+00
    outer loop
      vertex   5.000000e-02 0.000000e+00 1.735000e+01
      vertex   0.000000e+00 2.000000e+00 1.735000e+01
      vertex   5.000000e-02 2.000000e+00 1.735000e+01
    endloop
  endfacet
  facet normal 1.000000e+00 0.000000e+00 0.000000e+00
    outer loop
      vertex   5.000000e-02 0.000000e+00 1.735000e+01
      vertex   5.000000e-02 2.000000e+00 1.735000e+01
      vertex   5.000000e-02 0.000000e+00 1.740000e+01
    endloop
  endfacet
  facet normal 1.000000e+00 -0.000000e+00 0.000000e+00
    outer loop
      vertex   5.000000e-02 0.000000e+00 1.740000e+01
      vertex   5.000000e-02 2.000000e+00 1.735000e+01
      vertex   5.000000e-02 2.000000e+00 1.740000e+01
    endloop
  endfacet
  facet normal 0.000000e+00 -0.000000e+00 1.000000e+00
    outer loop
      vertex   5.000000e-02 0.000000e+00 1.740000e+01
      vertex   5.000000e-02 2.000000e+00 1.740000e+01
      vertex   0.000000e+00 0.000000e+00 1.740000e+01
    endloop
  endfacet
  facet normal 0.000000e+00 0.000000e+00 1.000000e+00
    outer loop
      vertex   0.000000e+00 0.000000e+00 1.740000e+01
      vertex   5.000000e-02 2.000000e+00 1.740000e+01
      vertex   0.000000e+00 2.000000e+00 1.740000e+01
    endloop
  endfacet
  facet normal 0.000000e+00 1.000000e+00 0.000000e+00
    outer loop
      vertex   5.000000e-02 2.000000e+00 1.740000e+01
      vertex   5.000000e-02 2.000000e+00 1.735000e+01
      vertex   0.000000e+00 2.000000e+00 1.740000e+01
    endloop
  endfacet
  facet normal 0.000000e+00 1.000000e+00 0.000000e+00
    outer loop
      vertex   0.000000e+00 2.000000e+00 1.740000e+01
      vertex   5.000000e-02 2.000000e+00 1.735000e+01
      vertex   0.000000e+00 2.000000e+00 1.735000e+01
    endloop
  endfacet
  facet normal -0.000000e+00 -1.000000e+00 -0.000000e+00
    outer loop
      vertex   5.000000e-02 0.000000e+00 1.740000e+01
      vertex   0.000000e+00 0.000000e+00 1.740000e+01
      vertex   5.000000e-02 0.000000e+00 1.735000e+01
    endloop
  endfacet
  facet normal 0.000000e+00 -1.000000e+00 0.000000e+00
    outer loop
      vertex   5.000000e-02 0.000000e+00 1.735000e+01
      vertex   0.000000e+00 0.000000e+00 1.740000e+01
      vertex   0.000000e+00 0.000000e+00 1.735000e+01
    endloop
  endfacet
  facet normal 0.000000e+00 0.000000e+00 1.000000e+00
    outer loop
      vertex   0.000000e+00 0.000000e+00 1.550000e+01
      vertex   5.000000e-01 0.000000e+00 1.550000e+01
      vertex   0.000000e+00 2.000000e+00 1.550000e+01
    endloop
  endfacet
  facet normal -0.000000e+00 0.000000e+00 1.000000e+00
    outer loop
      vertex   0.000000e+00 2.000000e+00 1.550000e+01
      vertex   5.000000e-01 0.000000e+00 1.550000e+01
      vertex   5.000000e-01 2.000000e+00 1.550000e+01
    endloop
  endfacet
  facet normal -1.000000e+00 0.000000e+00 0.000000e+00
    outer loop
      vertex   0.000000e+00 0.000000e+00 1.500000e+01
      vertex   0.000000e+00 0.000000e+00 1.550000e+01
      vertex   0.000000e+00 2.000000e+00 1.500000e+01
    endloop
  endfacet
  facet normal -1.000000e+00 0.000000e+00 0.000000e+00
    outer loop
      vertex   0.000000e+00 2.000000e+00 1.500000e+01
      vertex   0.000000e+00 0.000000e+00 1.550000e+01
      vertex   0.000000e+00 2.000000e+00 1.550000e+01
    endloop
  endfacet
  facet normal 0.000000e+00 0.000000e+00 -1.000000e+00
    outer loop
      vertex   5.000000e-01 0.000000e+00 1.500000e+01
      vertex   0.000000e+00 0.000000e+00 1.500000e+01
      vertex   5.000000e-01 2.000000e+00 1.500000e+01
    endloop
  endfacet
  facet normal -0.000000e+00 0.000000e+00 -1.000000e+00
    outer loop
      vertex   5.000000e-01 2.000000e+00 1.500000e+01
      vertex   0.000000e+00 0.000000e+00 1.500000e+01
      vertex   0.000000e+00 2.000000e+00 1.500000e+01
    endloop
  endfacet
  facet normal 1.000000e+00 -0.000000e+00 0.000000e+00
    outer loop
      vertex   5.000000e-01 0.000000e+00 1.550000e+01
      vertex   5.000000e-01 0.000000e+00 1.500000e+01
      vertex   5.000000e-01 2.000000e+00 1.550000e+01
    endloop
  endfacet
  facet normal 1.000000e+00 0.000000e+00 0.000000e+00
    outer loop
      vertex   5.000000e-01 2.000000e+00 1.550000e+01
      vertex   5.000000e-01 0.000000e+00 1.500000e+01
      vertex   5.000000e-01 2.000000e+00 1.500000e+01
    endloop
  endfacet
  facet normal 0.000000e+00 1.000000e+00 0.000000e+00
    outer loop
      vertex   5.000000e-01 2.000000e+00 1.550000e+01
      vertex   5.000000e-01 2.000000e+00 1.500000e+01
      vertex   0.000000e+00 2.000000e+00 1.550000e+01
    endloop
  endfacet
  facet normal 0.000000e+00 1.000000e+00 0.000000e+00
    outer loop
      vertex   0.000000e+00 2.000000e+00 1.550000e+01
      vertex   5.000000e-01 2.000000e+00 1.500000e+01
      vertex   0.000000e+00 2.000000e+00 1.500000e+01
    endloop
  endfacet
  facet normal -0.000000e+00 -1.000000e+00 -0.000000e+00
    outer loop
      vertex   5.000000e-01 0.000000e+00 1.550000e+01
      vertex   0.000000e+00 0.000000e+00 1.550000e+01
      vertex   5.000000e-01 0.000000e+00 1.500000e+01
    endloop
  endfacet
  facet normal 0.000000e+00 -1.000000e+00 0.000000e+00
    outer loop
      vertex   5.000000e-01 0.000000e+00 1.500000e+01
      vertex   0.000000e+00 0.000000e+00 1.550000e+01
      vertex   0.000000e+00 0.000000e+00 1.500000e+01
    endloop
  endfacet
  facet normal 1.000000e+00 0.000000e+00 0.000000e+00
    outer loop
      vertex   1.000000e-02 0.000000e+00 1.767000e+01
      vertex   1.000000e-02 2.000000e+00 1.767000e+01
      vertex   1.000000e-02 0.000000e+00 1.768000e+01
    endloop
  endfacet
  facet normal 1.000000e+00 -0.000000e+00 0.000000e+00
    outer loop
      vertex   1.000000e-02 0.000000e+00 1.768000e+01
      vertex   1.000000e-02 2.000000e+00 1.767000e+01
      vertex   1.000000e-02 2.000000e+00 1.768000e+01
    endloop
  endfacet
  facet normal 0.000000e+00 -0.000000e+00 1.000000e+00
    outer loop
      vertex   1.000000e-02 0.000000e+00 1.768000e+01
      vertex   1.000000e-02 2.000000e+00 1.768000e+01
      vertex   0.000000e+00 0.000000e+00 1.768000e+01
    endloop
  endfacet
  facet normal 0.000000e+00 0.000000e+00 1.000000e+00
    outer loop
      vertex   0.000000e+00 0.000000e+00 1.768000e+01
      vertex   1.000000e-02 2.000000e+00 1.768000e+01
      vertex   0.000000e+00 2.000000e+00 1.768000e+01
    endloop
  endfacet
  facet normal -1.000000e+00 0.000000e+00 0.000000e+00
    outer loop
      vertex   0.000000e+00 0.000000e+00 1.768000e+01
      vertex   0.000000e+00 2.000000e+00 1.768000e+01
      vertex   0.000000e+00 0.000000e+00 1.767000e+01
    endloop
  endfacet
  facet normal -1.000000e+00 0.000000e+00 0.000000e+00
    outer loop
      vertex   0.000000e+00 0.000000e+00 1.767000e+01
      vertex   0.000000e+00 2.000000e+00 1.768000e+01
      vertex   0.000000e+00 2.000000e+00 1.767000e+01
    endloop
  endfacet
  facet normal 0.000000e+00 0.000000e+00 -1.000000e+00
    outer loop
      vertex   0.000000e+00 0.000000e+00 1.767000e+01
      vertex   0.000000e+00 2.000000e+00 1.767000e+01
      vertex   1.000000e-02 0.000000e+00 1.767000e+01
    endloop
  endfacet
  facet normal 0.000000e+00 0.000000e+00 -1.000000e+00
    outer loop
      vertex   1.000000e-02 0.000000e+00 1.767000e+01
      vertex   0.000000e+00 2.000000e+00 1.767000e+01
      vertex   1.000000e-02 2.000000e+00 1.767000e+01
    endloop
  endfacet
  facet normal 0.000000e+00 1.000000e+00 0.000000e+00
    outer loop
      vertex   0.000000e+00 2.000000e+00 1.767000e+01
      vertex   0.000000e+00 2.000000e+00 1.768000e+01
      vertex   1.000000e-02 2.000000e+00 1.767000e+01
    endloop
  endfacet
  facet normal 0.000000e+00 1.000000e+00 -0.000000e+00
    outer loop
      vertex   1.000000e-02 2.000000e+00 1.767000e+01
      vertex   0.000000e+00 2.000000e+00 1.768000e+01
      vertex   1.000000e-02 2.000000e+00 1.768000e+01
    endloop
  endfacet
  facet normal 0.000000e+00 -1.000000e+00 0.000000e+00
    outer loop
      vertex   0.000000e+00 0.000000e+00 1.767000e+01
      vertex   1.000000e-02 0.000000e+00 1.767000e+01
      vertex   0.000000e+00 0.000000e+00 1.768000e+01
    endloop
  endfacet
  facet normal 0.000000e+00 -1.000000e+00 0.000000e+00
    outer loop
      vertex   0.000000e+00 0.000000e+00 1.768000e+01
      vertex   1.000000e-02 0.000000e+00 1.767000e+01
      vertex   1.000000e-02 0.000000e+00 1.768000e+01
    endloop
  endfacet
  facet normal 0.000000e+00 0.000000e+00 1.000000e+00
    outer loop
      vertex   4.000000e+00 0.000000e+00 1.200000e+01
      vertex   6.000000e+00 0.000000e+00 1.200000e+01
      vertex   4.000000e+00 2.000000e+00 1.200000e+01
    endloop
  endfacet
  facet normal -0.000000e+00 0.000000e+00 1.000000e+00
    outer loop
      vertex   4.000000e+00 2.000000e+00 1.200000e+01
      vertex   6.000000e+00 0.000000e+00 1.200000e+01
      vertex   6.000000e+00 2.000000e+00 1.200000e+01
    endloop
  endfacet
  facet normal -1.000000e+00 0.000000e+00 0.000000e+00
    outer loop
      vertex   4.000000e+00 0.000000e+00 1.000000e+01
      vertex   4.000000e+00 0.000000e+00 1.200000e+01
      vertex   4.000000e+00 2.000000e+00 1.000000e+01
    endloop
  endfacet
  facet normal -1.000000e+00 0.000000e+00 0.000000e+00
    outer loop
      vertex   4.000000e+00 2.000000e+00 1.000000e+01
      vertex   4.000000e+00 0.000000e+00 1.200000e+01
      vertex   4.000000e+00 2.000000e+00 1.200000e+01
    endloop
  endfacet
  facet normal 0.000000e+00 0.000000e+00 -1.000000e+00
    outer loop
      vertex   6.000000e+00 0.000000e+00 1.000000e+01
      vertex   4.000000e+00 0.000000e+00 1.000000e+01
      vertex   6.000000e+00 2.000000e+00 1.000000e+01
    endloop
  endfacet
  facet normal -0.000000e+00 0.000000e+00 -1.000000e+00
    outer loop
      vertex   6.000000e+00 2.000000e+00 1.000000e+01
      vertex   4.000000e+00 0.000000e+00 1.000000e+01
      vertex   4.000000e+00 2.000000e+00 1.000000e+01
    endloop
  endfacet
  facet normal 1.000000e+00 -0.000000e+00 0.000000e+00
    outer loop
      vertex   6.000000e+00 0.000000e+00 1.200000e+01
      vertex   6.000000e+00 0.000000e+00 1.000000e+01
      vertex   6.000000e+00 2.000000e+00 1.200000e+01
    endloop
  endfacet
  facet normal 1.000000e+00 0.000000e+00 0.000000e+00
    outer loop
      vertex   6.000000e+00 2.000000e+00 1.200000e+01
      vertex   6.000000e+00 0.000000e+00 1.000000e+01
      vertex   6.000000e+00 2.000000e+00 1.000000e+01
    endloop
  endfacet
  facet normal 0.000000e+00 1.000000e+00 0.000000e+00
    outer loop
      vertex   6.000000e+00 2.000000e+00 1.200000e+01
      vertex   6.000000e+00 2.000000e+00 1.000000e+01
      vertex   4.000000e+00 2.000000e+00 1.200000e+01
    endloop
  endfacet
  facet normal 0.000000e+00 1.000000e+00 0.000000e+00
    outer loop
      vertex   4.000000e+00 2.000000e+00 1.200000e+01
      vertex   6.000000e+00 2.000000e+00 1.000000e+01
      vertex   4.000000e+00 2.000000e+00 1.000000e+01
    endloop
  endfacet
  facet normal -0.000000e+00 -1.000000e+00 -0.000000e+00
    outer loop
      vertex   6.000000e+00 0.000000e+00 1.200000e+01
      vertex   4.000000e+00 0.000000e+00 1.200000e+01
      vertex   6.000000e+00 0.000000e+00 1.000000e+01
    endloop
  endfacet
  facet normal 0.000000e+00 -1.000000e+00 0.000000e+00
    outer loop
      vertex   6.000000e+00 0.000000e+00 1.000000e+01
      vertex   4.000000e+00 0.000000e+00 1.200000e+01
      vertex   4.000000e+00 0.000000e+00 1.000000e+01
    endloop
  endfacet
  facet normal 1.000000e+00 -0.000000e+00 0.000000e+00
    outer loop
      vertex   1.000000e-01 0.000000e+00 1.710000e+01
      vertex   1.000000e-01 0.000000e+00 1.700000e+01
      vertex   1.000000e-01 2.000000e+00 1.710000e+01
    endloop
  endfacet
  facet normal 1.000000e+00 0.000000e+00 0.000000e+00
    outer loop
      vertex   1.000000e-01 2.000000e+00 1.710000e+01
      vertex   1.000000e-01 0.000000e+00 1.700000e+01
      vertex   1.000000e-01 2.000000e+00 1.700000e+01
    endloop
  endfacet
  facet normal 0.000000e+00 0.000000e+00 1.000000e+00
    outer loop
      vertex   -2.235174e-09 0.000000e+00 1.710000e+01
      vertex   1.000000e-01 0.000000e+00 1.710000e+01
      vertex   -2.235174e-09 2.000000e+00 1.710000e+01
    endloop
  endfacet
  facet normal -0.000000e+00 0.000000e+00 1.000000e+00
    outer loop
      vertex   -2.235174e-09 2.000000e+00 1.710000e+01
      vertex   1.000000e-01 0.000000e+00 1.710000e+01
      vertex   1.000000e-01 2.000000e+00 1.710000e+01
    endloop
  endfacet
  facet normal -1.000000e+00 0.000000e+00 0.000000e+00
    outer loop
      vertex   -2.235174e-09 0.000000e+00 1.700000e+01
      vertex   -2.235174e-09 0.000000e+00 1.710000e+01
      vertex   -2.235174e-09 2.000000e+00 1.700000e+01
    endloop
  endfacet
  facet normal -1.000000e+00 0.000000e+00 0.000000e+00
    outer loop
      vertex   -2.235174e-09 2.000000e+00 1.700000e+01
      vertex   -2.235174e-09 0.000000e+00 1.710000e+01
      vertex   -2.235174e-09 2.000000e+00 1.710000e+01
    endloop
  endfacet
  facet normal 0.000000e+00 0.000000e+00 -1.000000e+00
    outer loop
      vertex   1.000000e-01 0.000000e+00 1.700000e+01
      vertex   -2.235174e-09 0.000000e+00 1.700000e+01
      vertex   1.000000e-01 2.000000e+00 1.700000e+01
    endloop
  endfacet
  facet normal -0.000000e+00 0.000000e+00 -1.000000e+00
    outer loop
      vertex   1.000000e-01 2.000000e+00 1.700000e+01
      vertex   -2.235174e-09 0.000000e+00 1.700000e+01
      vertex   -2.235174e-09 2.000000e+00 1.700000e+01
    endloop
  endfacet
  facet normal 0.000000e+00 1.000000e+00 0.000000e+00
    outer loop
      vertex   -2.235174e-09 2.000000e+00 1.700000e+01
      vertex   -2.235174e-09 2.000000e+00 1.710000e+01
      vertex   1.000000e-01 2.000000e+00 1.700000e+01
    endloop
  endfacet
  facet normal 0.000000e+00 1.000000e+00 -0.000000e+00
    outer loop
      vertex   1.000000e-01 2.000000e+00 1.700000e+01
      vertex   -2.235174e-09 2.000000e+00 1.710000e+01
      vertex   1.000000e-01 2.000000e+00 1.710000e+01
    endloop
  endfacet
  facet normal 0.000000e+00 -1.000000e+00 0.000000e+00
    outer loop
      vertex   -2.235174e-09 0.000000e+00 1.700000e+01
      vertex   1.000000e-01 0.000000e+00 1.700000e+01
      vertex   -2.235174e-09 0.000000e+00 1.710000e+01
    endloop
  endfacet
  facet normal 0.000000e+00 -1.000000e+00 0.000000e+00
    outer loop
      vertex   -2.235174e-09 0.000000e+00 1.710000e+01
      vertex   1.000000e-01 0.000000e+00 1.700000e+01
      vertex   1.000000e-01 0.000000e+00 1.710000e+01
    endloop
  endfacet
  facet normal 1.000000e+00 0.000000e+00 0.000000e+00
    outer loop
      vertex   1.500000e-01 0.000000e+00 1.735000e+01
      vertex   1.500000e-01 2.000000e+00 1.735000e+01
      vertex   1.500000e-01 0.000000e+00 1.740000e+01
    endloop
  endfacet
  facet normal 1.000000e+00 -0.000000e+00 0.000000e+00
    outer loop
      vertex   1.500000e-01 0.000000e+00 1.740000e+01
      vertex   1.500000e-01 2.000000e+00 1.735000e+01
      vertex   1.500000e-01 2.000000e+00 1.740000e+01
    endloop
  endfacet
  facet normal 0.000000e+00 -0.000000e+00 1.000000e+00
    outer loop
      vertex   1.500000e-01 0.000000e+00 1.740000e+01
      vertex   1.500000e-01 2.000000e+00 1.740000e+01
      vertex   1.000000e-01 0.000000e+00 1.740000e+01
    endloop
  endfacet
  facet normal 0.000000e+00 0.000000e+00 1.000000e+00
    outer loop
      vertex   1.000000e-01 0.000000e+00 1.740000e+01
      vertex   1.500000e-01 2.000000e+00 1.740000e+01
      vertex   1.000000e-01 2.000000e+00 1.740000e+01
    endloop
  endfacet
  facet normal -1.000000e+00 0.000000e+00 0.000000e+00
    outer loop
      vertex   1.000000e-01 0.000000e+00 1.740000e+01
      vertex   1.000000e-01 2.000000e+00 1.740000e+01
      vertex   1.000000e-01 0.000000e+00 1.735000e+01
    endloop
  endfacet
  facet normal -1.000000e+00 0.000000e+00 0.000000e+00
    outer loop
      vertex   1.000000e-01 0.000000e+00 1.735000e+01
      vertex   1.000000e-01 2.000000e+00 1.740000e+01
      vertex   1.000000e-01 2.000000e+00 1.735000e+01
    endloop
  endfacet
  facet normal 0.000000e+00 0.000000e+00 -1.000000e+00
    outer loop
      vertex   1.000000e-01 0.000000e+00 1.735000e+01
      vertex   1.000000e-01 2.000000e+00 1.735000e+01
      vertex   1.500000e-01 0.000000e+00 1.735000e+01
    endloop
  endfacet
  facet normal 0.000000e+00 0.000000e+00 -1.000000e+00
    outer loop
      vertex   1.500000e-01 0.000000e+00 1.735000e+01
      vertex   1.000000e-01 2.000000e+00 1.735000e+01
      vertex   1.500000e-01 2.000000e+00 1.735000e+01
    endloop
  endfacet
  facet normal 0.000000e+00 1.000000e+00 0.000000e+00
    outer loop
      vertex   1.000000e-01 2.000000e+00 1.735000e+01
      vertex   1.000000e-01 2.000000e+00 1.740000e+01
      vertex   1.500000e-01 2.000000e+00 1.735000e+01
    endloop
  endfacet
  facet normal 0.000000e+00 1.000000e+00 -0.000000e+00
    outer loop
      vertex   1.500000e-01 2.000000e+00 1.735000e+01
      vertex   1.000000e-01 2.000000e+00 1.740000e+01
      vertex   1.500000e-01 2.000000e+00 1.740000e+01
    endloop
  endfacet
  facet normal 0.000000e+00 -1.000000e+00 0.000000e+00
    outer loop
      vertex   1.000000e-01 0.000000e+00 1.735000e+01
      vertex   1.500000e-01 0.000000e+00 1.735000e+01
      vertex   1.000000e-01 0.000000e+00 1.740000e+01
    endloop
  endfacet
  facet normal 0.000000e+00 -1.000000e+00 0.000000e+00
    outer loop
      vertex   1.000000e-01 0.000000e+00 1.740000e+01
      vertex   1.500000e-01 0.000000e+00 1.735000e+01
      vertex   1.500000e-01 0.000000e+00 1.740000e+01
    endloop
  endfacet
  facet normal -1.000000e+00 0.000000e+00 0.000000e+00
    outer loop
      vertex   1.440000e+01 0.000000e+00 1.000000e-01
      vertex   1.440000e+01 0.000000e+00 2.000000e+01
      vertex   1.440000e+01 2.000000e+00 1.000000e-01
    endloop
  endfacet
  facet normal -1.000000e+00 0.000000e+00 0.000000e+00
    outer loop
      vertex   1.440000e+01 2.000000e+00 1.000000e-01
      vertex   1.440000e+01 0.000000e+00 2.000000e+01
      vertex   1.440000e+01 2.000000e+00 2.000000e+01
    endloop
  endfacet
  facet normal -1.156482e-16 -3.469447e-17 1.000000e+00
    outer loop
      vertex   1.380000e+01 0.000000e+00 1.000000e-01
      vertex   1.440000e+01 0.000000e+00 1.000000e-01
      vertex   1.380000e+01 2.000000e+00 1.000000e-01
    endloop
  endfacet
  facet normal -0.000000e+00 0.000000e+00 1.000000e+00
    outer loop
      vertex   1.380000e+01 2.000000e+00 1.000000e-01
      vertex   1.440000e+01 0.000000e+00 1.000000e-01
      vertex   1.440000e+01 2.000000e+00 1.000000e-01
    endloop
  endfacet
  facet normal 1.000000e+00 -0.000000e+00 0.000000e+00
    outer loop
      vertex   1.380000e+01 0.000000e+00 2.000000e+01
      vertex   1.380000e+01 0.000000e+00 1.000000e-01
      vertex   1.380000e+01 2.000000e+00 2.000000e+01
    endloop
  endfacet
  facet normal 1.000000e+00 0.000000e+00 0.000000e+00
    outer loop
      vertex   1.380000e+01 2.000000e+00 2.000000e+01
      vertex   1.380000e+01 0.000000e+00 1.000000e-01
      vertex   1.380000e+01 2.000000e+00 1.000000e-01
    endloop
  endfacet
  facet normal 0.000000e+00 0.000000e+00 1.000000e+00
    outer loop
      vertex   1.250000e+01 0.000000e+00 2.000000e+01
      vertex   1.380000e+01 0.000000e+00 2.000000e+01
      vertex   1.250000e+01 2.000000e+00 2.000000e+01
    endloop
  endfacet
  facet normal -0.000000e+00 0.000000e+00 1.000000e+00
    outer loop
      vertex   1.250000e+01 2.000000e+00 2.000000e+01
      vertex   1.380000e+01 0.000000e+00 2.000000e+01
      vertex   1.380000e+01 2.000000e+00 2.000000e+01
    endloop
  endfacet
  facet normal -1.000000e+00 0.000000e+00 0.000000e+00
    outer loop
      vertex   1.250000e+01 0.000000e+00 5.000000e-01
      vertex   1.250000e+01 0.000000e+00 2.000000e+01
      vertex   1.250000e+01 2.000000e+00 5.000000e-01
    endloop
  endfacet
  facet normal -1.000000e+00 0.000000e+00 0.000000e+00
    outer loop
      vertex   1.250000e+01 2.000000e+00 5.000000e-01
      vertex   1.250000e+01 0.000000e+00 2.000000e+01
      vertex   1.250000e+01 2.000000e+00 2.000000e+01
    endloop
  endfacet
  facet normal 0.000000e+00 0.000000e+00 1.000000e+00
    outer loop
      vertex   1.050000e+01 0.000000e+00 5.000000e-01
      vertex   1.250000e+01 0.000000e+00 5.000000e-01
      vertex   1.050000e+01 2.000000e+00 5.000000e-01
    endloop
  endfacet
  facet normal -0.000000e+00 0.000000e+00 1.000000e+00
    outer loop
      vertex   1.050000e+01 2.000000e+00 5.000000e-01
      vertex   1.250000e+01 0.000000e+00 5.000000e-01
      vertex   1.250000e+01 2.000000e+00 5.000000e-01
    endloop
  endfacet
  facet normal 1.000000e+00 -0.000000e+00 0.000000e+00
    outer loop
      vertex   1.050000e+01 0.000000e+00 2.000000e+01
      vertex   1.050000e+01 0.000000e+00 5.000000e-01
      vertex   1.050000e+01 2.000000e+00 2.000000e+01
    endloop
  endfacet
  facet normal 1.000000e+00 0.000000e+00 0.000000e+00
    outer loop
      vertex   1.050000e+01 2.000000e+00 2.000000e+01
      vertex   1.050000e+01 0.000000e+00 5.000000e-01
      vertex   1.050000e+01 2.000000e+00 5.000000e-01
    endloop
  endfacet
  facet normal 0.000000e+00 0.000000e+00 1.000000e+00
    outer loop
      vertex   1.000000e+01 0.000000e+00 2.000000e+01
      vertex   1.050000e+01 0.000000e+00 2.000000e+01
      vertex   1.000000e+01 2.000000e+00 2.000000e+01
    endloop
  endfacet
  facet normal -0.000000e+00 0.000000e+00 1.000000e+00
    outer loop
      vertex   1.000000e+01 2.000000e+00 2.000000e+01
      vertex   1.050000e+01 0.000000e+00 2.000000e+01
      vertex   1.050000e+01 2.000000e+00 2.000000e+01
    endloop
  endfacet
  facet normal -1.000000e+00 0.000000e+00 0.000000e+00
    outer loop
      vertex   1.000000e+01 0.000000e+00 0.000000e+00
      vertex   1.000000e+01 0.000000e+00 2.000000e+01
      vertex   1.000000e+01 2.000000e+00 0.000000e+00
    endloop
  endfacet
  facet normal -1.000000e+00 0.000000e+00 0.000000e+00
    outer loop
      vertex   1.000000e+01 2.000000e+00 0.000000e+00
      vertex   1.000000e+01 0.000000e+00 2.000000e+01
      vertex   1.000000e+01 2.000000e+00 2.000000e+01
    endloop
  endfacet
  facet normal 0.000000e+00 0.000000e+00 -1.000000e+00
    outer loop
      vertex   1.270000e+01 0.000000e+00 0.000000e+00
      vertex   1.000000e+01 0.000000e+00 0.000000e+00
      vertex   1.270000e+01 2.000000e+00 0.000000e+00
    endloop
  endfacet
  facet normal -0.000000e+00 0.000000e+00 -1.000000e+00
    outer loop
      vertex   1.270000e+01 2.000000e+00 0.000000e+00
      vertex   1.000000e+01 0.000000e+00 0.000000e+00
      vertex   1.000000e+01 2.000000e+00 0.000000e+00
    endloop
  endfacet
  facet normal 1.000000e+00 -0.000000e+00 0.000000e+00
    outer loop
      vertex   1.270000e+01 0.000000e+00 1.980000e+01
      vertex   1.270000e+01 0.000000e+00 0.000000e+00
      vertex   1.270000e+01 2.000000e+00 1.980000e+01
    endloop
  endfacet
  facet normal 1.000000e+00 0.000000e+00 0.000000e+00
    outer loop
      vertex   1.270000e+01 2.000000e+00 1.980000e+01
      vertex   1.270000e+01 0.000000e+00 0.000000e+00
      vertex   1.270000e+01 2.000000e+00 0.000000e+00
    endloop
  endfacet
  facet normal 0.000000e+00 0.000000e+00 -1.000000e+00
    outer loop
      vertex   1.370000e+01 0.000000e+00 1.980000e+01
      vertex   1.270000e+01 0.000000e+00 1.980000e+01
      vertex   1.370000e+01 2.000000e+00 1.980000e+01
    endloop
  endfacet
  facet normal -0.000000e+00 0.000000e+00 -1.000000e+00
    outer loop
      vertex   1.370000e+01 2.000000e+00 1.980000e+01
      vertex   1.270000e+01 0.000000e+00 1.980000e+01
      vertex   1.270000e+01 2.000000e+00 1.980000e+01
    endloop
  endfacet
  facet normal -1.000000e+00 0.000000e+00 0.000000e+00
    outer loop
      vertex   1.370000e+01 0.000000e+00 0.000000e+00
      vertex   1.370000e+01 0.000000e+00 1.980000e+01
      vertex   1.370000e+01 2.000000e+00 0.000000e+00
    endloop
  endfacet
  facet normal -1.000000e+00 0.000000e+00 0.000000e+00
    outer loop
      vertex   1.370000e+01 2.000000e+00 0.000000e+00
      vertex   1.370000e+01 0.000000e+00 1.980000e+01
      vertex   1.370000e+01 2.000000e+00 1.980000e+01
    endloop
  endfacet
  facet normal 0.000000e+00 0.000000e+00 -1.000000e+00
    outer loop
      vertex   1.445000e+01 0.000000e+00 0.000000e+00
      vertex   1.370000e+01 0.000000e+00 0.000000e+00
      vertex   1.445000e+01 2.000000e+00 0.000000e+00
    endloop
  endfacet
  facet normal -0.000000e+00 0.000000e+00 -1.000000e+00
    outer loop
      vertex   1.445000e+01 2.000000e+00 0.000000e+00
      vertex   1.370000e+01 0.000000e+00 0.000000e+00
      vertex   1.370000e+01 2.000000e+00 0.000000e+00
    endloop
  endfacet
  facet normal 1.000000e+00 -0.000000e+00 0.000000e+00
    outer loop
      vertex   1.445000e+01 0.000000e+00 1.995000e+01
      vertex   1.445000e+01 0.000000e+00 0.000000e+00
      vertex   1.445000e+01 2.000000e+00 1.995000e+01
    endloop
  endfacet
  facet normal 1.000000e+00 0.000000e+00 0.000000e+00
    outer loop
      vertex   1.445000e+01 2.000000e+00 1.995000e+01
      vertex   1.445000e+01 0.000000e+00 0.000000e+00
      vertex   1.445000e+01 2.000000e+00 0.000000e+00
    endloop
  endfacet
  facet normal 0.000000e+00 0.000000e+00 -1.000000e+00
    outer loop
      vertex   1.485000e+01 0.000000e+00 1.995000e+01
      vertex   1.445000e+01 0.000000e+00 1.995000e+01
      vertex   1.485000e+01 2.000000e+00 1.995000e+01
    endloop
  endfacet
  facet normal -0.000000e+00 0.000000e+00 -1.000000e+00
    outer loop
      vertex   1.485000e+01 2.000000e+00 1.995000e+01
      vertex   1.445000e+01 0.000000e+00 1.995000e+01
      vertex   1.445000e+01 2.000000e+00 1.995000e+01
    endloop
  endfacet
  facet normal -1.000000e+00 0.000000e+00 0.000000e+00
    outer loop
      vertex   1.485000e+01 0.000000e+00 0.000000e+00
      vertex   1.485000e+01 0.000000e+00 1.995000e+01
      vertex   1.485000e+01 2.000000e+00 0.000000e+00
    endloop
  endfacet
  facet normal -1.000000e+00 0.000000e+00 0.000000e+00
    outer loop
      vertex   1.485000e+01 2.000000e+00 0.000000e+00
      vertex   1.485000e+01 0.000000e+00 1.995000e+01
      vertex   1.485000e+01 2.000000e+00 1.995000e+01
    endloop
  endfacet
  facet normal 0.000000e+00 0.000000e+00 -1.000000e+00
    outer loop
      vertex   1.485000e+01 0.000000e+00 0.000000e+00
      vertex   1.485000e+01 2.000000e+00 0.000000e+00
      vertex   1.487500e+01 0.000000e+00 0.000000e+00
    endloop
  endfacet
  facet normal 0.000000e+00 0.000000e+00 -1.000000e+00
    outer loop
      vertex   1.487500e+01 0.000000e+00 0.000000e+00
      vertex   1.485000e+01 2.000000e+00 0.000000e+00
      vertex   1.487500e+01 2.000000e+00 0.000000e+00
    endloop
  endfacet
  facet normal 1.000000e+00 -0.000000e+00 0.000000e+00
    outer loop
      vertex   1.487500e+01 0.000000e+00 2.000000e+01
      vertex   1.487500e+01 0.000000e+00 0.000000e+00
      vertex   1.487500e+01 2.000000e+00 2.000000e+01
    endloop
  endfacet
  facet normal 1.000000e+00 0.000000e+00 0.000000e+00
    outer loop
      vertex   1.487500e+01 2.000000e+00 2.000000e+01
      vertex   1.487500e+01 0.000000e+00 0.000000e+00
      vertex   1.487500e+01 2.000000e+00 0.000000e+00
    endloop
  endfacet
  facet normal 0.000000e+00 0.000000e+00 1.000000e+00
    outer loop
      vertex   1.440000e+01 0.000000e+00 2.000000e+01
      vertex   1.487500e+01 0.000000e+00 2.000000e+01
      vertex   1.440000e+01 2.000000e+00 2.000000e+01
    endloop
  endfacet
  facet normal -0.000000e+00 0.000000e+00 1.000000e+00
    outer loop
      vertex   1.440000e+01 2.000000e+00 2.000000e+01
      vertex   1.487500e+01 0.000000e+00 2.000000e+01
      vertex   1.487500e+01 2.000000e+00 2.000000e+01
    endloop
  endfacet
  facet normal 0.000000e+00 1.000000e+00 0.000000e+00
    outer loop
      vertex   1.440000e+01 2.000000e+00 1.000000e-01
      vertex   1.440000e+01 2.000000e+00 2.000000e+01
      vertex   1.445000e+01 2.000000e+00 1.995000e+01
    endloop
  endfacet
  facet normal 0.000000e+00 1.000000e+00 -0.000000e+00
    outer loop
      vertex   1.445000e+01 2.000000e+00 1.995000e+01
      vertex   1.440000e+01 2.000000e+00 2.000000e+01
      vertex   1.487500e+01 2.000000e+00 2.000000e+01
    endloop
  endfacet
  facet normal 0.000000e+00 1.000000e+00 0.000000e+00
    outer loop
      vertex   1.445000e+01 2.000000e+00 1.995000e+01
      vertex   1.487500e+01 2.000000e+00 2.000000e+01
      vertex   1.485000e+01 2.000000e+00 1.995000e+01
    endloop
  endfacet
  facet normal -0.000000e+00 1.000000e+00 0.000000e+00
    outer loop
      vertex   1.485000e+01 2.000000e+00 1.995000e+01
      vertex   1.487500e+01 2.000000e+00 2.000000e+01
      vertex   1.487500e+01 2.000000e+00 0.000000e+00
    endloop
  endfacet
  facet normal 0.000000e+00 1.000000e+00 0.000000e+00
    outer loop
      vertex   1.485000e+01 2.000000e+00 1.995000e+01
      vertex   1.487500e+01 2.000000e+00 0.000000e+00
      vertex   1.485000e+01 2.000000e+00 0.000000e+00
    endloop
  endfacet
  facet normal 0.000000e+00 1.000000e+00 0.000000e+00
    outer loop
      vertex   1.445000e+01 2.000000e+00 1.995000e+01
      vertex   1.445000e+01 2.000000e+00 0.000000e+00
      vertex   1.440000e+01 2.000000e+00 1.000000e-01
    endloop
  endfacet
  facet normal 0.000000e+00 1.000000e+00 0.000000e+00
    outer loop
      vertex   1.440000e+01 2.000000e+00 1.000000e-01
      vertex   1.445000e+01 2.000000e+00 0.000000e+00
      vertex   1.380000e+01 2.000000e+00 1.000000e-01
    endloop
  endfacet
  facet normal 0.000000e+00 1.000000e+00 0.000000e+00
    outer loop
      vertex   1.380000e+01 2.000000e+00 1.000000e-01
      vertex   1.445000e+01 2.000000e+00 0.000000e+00
      vertex   1.370000e+01 2.000000e+00 0.000000e+00
    endloop
  endfacet
  facet normal 0.000000e+00 1.000000e+00 0.000000e+00
    outer loop
      vertex   1.380000e+01 2.000000e+00 1.000000e-01
      vertex   1.370000e+01 2.000000e+00 0.000000e+00
      vertex   1.370000e+01 2.000000e+00 1.980000e+01
    endloop
  endfacet
  facet normal 0.000000e+00 1.000000e+00 -0.000000e+00
    outer loop
      vertex   1.380000e+01 2.000000e+00 1.000000e-01
      vertex   1.370000e+01 2.000000e+00 1.980000e+01
      vertex   1.380000e+01 2.000000e+00 2.000000e+01
    endloop
  endfacet
  facet normal 0.000000e+00 1.000000e+00 0.000000e+00
    outer loop
      vertex   1.380000e+01 2.000000e+00 2.000000e+01
      vertex   1.370000e+01 2.000000e+00 1.980000e+01
      vertex   1.270000e+01 2.000000e+00 1.980000e+01
    endloop
  endfacet
  facet normal 0.000000e+00 1.000000e+00 0.000000e+00
    outer loop
      vertex   1.380000e+01 2.000000e+00 2.000000e+01
      vertex   1.270000e+01 2.000000e+00 1.980000e+01
      vertex   1.250000e+01 2.000000e+00 2.000000e+01
    endloop
  endfacet
  facet normal 0.000000e+00 1.000000e+00 0.000000e+00
    outer loop
      vertex   1.250000e+01 2.000000e+00 2.000000e+01
      vertex   1.270000e+01 2.000000e+00 1.980000e+01
      vertex   1.250000e+01 2.000000e+00 5.000000e-01
    endloop
  endfacet
  facet normal -0.000000e+00 1.000000e+00 0.000000e+00
    outer loop
      vertex   1.250000e+01 2.000000e+00 5.000000e-01
      vertex   1.270000e+01 2.000000e+00 1.980000e+01
      vertex   1.270000e+01 2.000000e+00 0.000000e+00
    endloop
  endfacet
  facet normal 0.000000e+00 1.000000e+00 0.000000e+00
    outer loop
      vertex   1.250000e+01 2.000000e+00 5.000000e-01
      vertex   1.270000e+01 2.000000e+00 0.000000e+00
      vertex   1.050000e+01 2.000000e+00 5.000000e-01
    endloop
  endfacet
  facet normal 0.000000e+00 1.000000e+00 0.000000e+00
    outer loop
      vertex   1.050000e+01 2.000000e+00 5.000000e-01
      vertex   1.270000e+01 2.000000e+00 0.000000e+00
      vertex   1.000000e+01 2.000000e+00 0.000000e+00
    endloop
  endfacet
  facet normal 0.000000e+00 1.000000e+00 0.000000e+00
    outer loop
      vertex   1.050000e+01 2.000000e+00 5.000000e-01
      vertex   1.000000e+01 2.000000e+00 0.000000e+00
      vertex   1.000000e+01 2.000000e+00 2.000000e+01
    endloop
  endfacet
  facet normal -0.000000e+00 1.000000e+00 0.000000e+00
    outer loop
      vertex   1.000000e+01 2.000000e+00 2.000000e+01
      vertex   1.050000e+01 2.000000e+00 2.000000e+01
      vertex   1.050000e+01 2.000000e+00 5.000000e-01
    endloop
  endfacet
  facet normal 0.000000e+00 -1.000000e+00 0.000000e+00
    outer loop
      vertex   1.440000e+01 0.000000e+00 2.000000e+01
      vertex   1.445000e+01 0.000000e+00 1.995000e+01
      vertex   1.487500e+01 0.000000e+00 2.000000e+01
    endloop
  endfacet
  facet normal 0.000000e+00 -1.000000e+00 0.000000e+00
    outer loop
      vertex   1.487500e+01 0.000000e+00 2.000000e+01
      vertex   1.445000e+01 0.000000e+00 1.995000e+01
      vertex   1.485000e+01 0.000000e+00 1.995000e+01
    endloop
  endfacet
  facet normal 0.000000e+00 -1.000000e+00 -0.000000e+00
    outer loop
      vertex   1.487500e+01 0.000000e+00 2.000000e+01
      vertex   1.485000e+01 0.000000e+00 1.995000e+01
      vertex   1.487500e+01 0.000000e+00 0.000000e+00
    endloop
  endfacet
  facet normal 0.000000e+00 -1.000000e+00 0.000000e+00
    outer loop
      vertex   1.487500e+01 0.000000e+00 0.000000e+00
      vertex   1.485000e+01 0.000000e+00 1.995000e+01
      vertex   1.485000e+01 0.000000e+00 0.000000e+00
    endloop
  endfacet
  facet normal 0.000000e+00 -1.000000e+00 0.000000e+00
    outer loop
      vertex   1.440000e+01 0.000000e+00 2.000000e+01
      vertex   1.440000e+01 0.000000e+00 1.000000e-01
      vertex   1.445000e+01 0.000000e+00 1.995000e+01
    endloop
  endfacet
  facet normal 0.000000e+00 -1.000000e+00 -0.000000e+00
    outer loop
      vertex   1.445000e+01 0.000000e+00 1.995000e+01
      vertex   1.440000e+01 0.000000e+00 1.000000e-01
      vertex   1.445000e+01 0.000000e+00 0.000000e+00
    endloop
  endfacet
  facet normal 0.000000e+00 -1.000000e+00 0.000000e+00
    outer loop
      vertex   1.445000e+01 0.000000e+00 0.000000e+00
      vertex   1.440000e+01 0.000000e+00 1.000000e-01
      vertex   1.380000e+01 0.000000e+00 1.000000e-01
    endloop
  endfacet
  facet normal 0.000000e+00 -1.000000e+00 0.000000e+00
    outer loop
      vertex   1.445000e+01 0.000000e+00 0.000000e+00
      vertex   1.380000e+01 0.000000e+00 1.000000e-01
      vertex   1.370000e+01 0.000000e+00 0.000000e+00
    endloop
  endfacet
  facet normal 0.000000e+00 -1.000000e+00 0.000000e+00
    outer loop
      vertex   1.370000e+01 0.000000e+00 0.000000e+00
      vertex   1.380000e+01 0.000000e+00 1.000000e-01
      vertex   1.370000e+01 0.000000e+00 1.980000e+01
    endloop
  endfacet
  facet normal 0.000000e+00 -1.000000e+00 0.000000e+00
    outer loop
      vertex   1.370000e+01 0.000000e+00 1.980000e+01
      vertex   1.380000e+01 0.000000e+00 1.000000e-01
      vertex   1.380000e+01 0.000000e+00 2.000000e+01
    endloop
  endfacet
  facet normal 0.000000e+00 -1.000000e+00 0.000000e+00
    outer loop
      vertex   1.370000e+01 0.000000e+00 1.980000e+01
      vertex   1.380000e+01 0.000000e+00 2.000000e+01
      vertex   1.270000e+01 0.000000e+00 1.980000e+01
    endloop
  endfacet
  facet normal 0.000000e+00 -1.000000e+00 0.000000e+00
    outer loop
      vertex   1.270000e+01 0.000000e+00 1.980000e+01
      vertex   1.380000e+01 0.000000e+00 2.000000e+01
      vertex   1.250000e+01 0.000000e+00 2.000000e+01
    endloop
  endfacet
  facet normal -0.000000e+00 -1.000000e+00 0.000000e+00
    outer loop
      vertex   1.270000e+01 0.000000e+00 1.980000e+01
      vertex   1.250000e+01 0.000000e+00 2.000000e+01
      vertex   1.250000e+01 0.000000e+00 5.000000e-01
    endloop
  endfacet
  facet normal 0.000000e+00 -1.000000e+00 -0.000000e+00
    outer loop
      vertex   1.270000e+01 0.000000e+00 1.980000e+01
      vertex   1.250000e+01 0.000000e+00 5.000000e-01
      vertex   1.270000e+01 0.000000e+00 0.000000e+00
    endloop
  endfacet
  facet normal 0.000000e+00 -1.000000e+00 0.000000e+00
    outer loop
      vertex   1.270000e+01 0.000000e+00 0.000000e+00
      vertex   1.250000e+01 0.000000e+00 5.000000e-01
      vertex   1.050000e+01 0.000000e+00 5.000000e-01
    endloop
  endfacet
  facet normal 0.000000e+00 -1.000000e+00 0.000000e+00
    outer loop
      vertex   1.270000e+01 0.000000e+00 0.000000e+00
      vertex   1.050000e+01 0.000000e+00 5.000000e-01
      vertex   1.000000e+01 0.000000e+00 0.000000e+00
    endloop
  endfacet
  facet normal 0.000000e+00 -1.000000e+00 0.000000e+00
    outer loop
      vertex   1.000000e+01 0.000000e+00 0.000000e+00
      vertex   1.050000e+01 0.000000e+00 5.000000e-01
      vertex   1.000000e+01 0.000000e+00 2.000000e+01
    endloop
  endfacet
  facet normal 0.000000e+00 -1.000000e+00 0.000000e+00
    outer loop
      vertex   1.000000e+01 0.000000e+00 2.000000e+01
      vertex   1.050000e+01 0.000000e+00 5.000000e-01
      vertex   1.050000e+01 0.000000e+00 2.000000e+01
    endloop
  endfacet
  facet normal 1.000000e+00 -0.000000e+00 0.000000e+00
    outer loop
      vertex   6.000000e-01 0.000000e+00 1.670000e+01
      vertex   6.000000e-01 0.000000e+00 1.650000e+01
      vertex   6.000000e-01 2.000000e+00 1.670000e+01
    endloop
  endfacet
  facet normal 1.000000e+00 0.000000e+00 0.000000e+00
    outer loop
      vertex   6.000000e-01 2.000000e+00 1.670000e+01
      vertex   6.000000e-01 0.000000e+00 1.650000e+01
      vertex   6.000000e-01 2.000000e+00 1.650000e+01
    endloop
  endfacet
  facet normal 0.000000e+00 0.000000e+00 1.000000e+00
    outer loop
      vertex   4.000000e-01 0.000000e+00 1.670000e+01
      vertex   6.000000e-01 0.000000e+00 1.670000e+01
      vertex   4.000000e-01 2.000000e+00 1.670000e+01
    endloop
  endfacet
  facet normal -0.000000e+00 0.000000e+00 1.000000e+00
    outer loop
      vertex   4.000000e-01 2.000000e+00 1.670000e+01
      vertex   6.000000e-01 0.000000e+00 1.670000e+01
      vertex   6.000000e-01 2.000000e+00 1.670000e+01
    endloop
  endfacet
  facet normal -1.000000e+00 0.000000e+00 0.000000e+00
    outer loop
      vertex   4.000000e-01 0.000000e+00 1.650000e+01
      vertex   4.000000e-01 0.000000e+00 1.670000e+01
      vertex   4.000000e-01 2.000000e+00 1.650000e+01
    endloop
  endfacet
  facet normal -1.000000e+00 0.000000e+00 0.000000e+00
    outer loop
      vertex   4.000000e-01 2.000000e+00 1.650000e+01
      vertex   4.000000e-01 0.000000e+00 1.670000e+01
      vertex   4.000000e-01 2.000000e+00 1.670000e+01
    endloop
  endfacet
  facet normal 0.000000e+00 0.000000e+00 -1.000000e+00
    outer loop
      vertex   6.000000e-01 0.000000e+00 1.650000e+01
      vertex   4.000000e-01 0.000000e+00 1.650000e+01
      vertex   6.000000e-01 2.000000e+00 1.650000e+01
    endloop
  endfacet
  facet normal -0.000000e+00 0.000000e+00 -1.000000e+00
    outer loop
      vertex   6.000000e-01 2.000000e+00 1.650000e+01
      vertex   4.000000e-01 0.000000e+00 1.650000e+01
      vertex   4.000000e-01 2.000000e+00 1.650000e+01
    endloop
  endfacet
  facet normal 0.000000e+00 1.000000e+00 0.000000e+00
    outer loop
      vertex   4.000000e-01 2.000000e+00 1.650000e+01
      vertex   4.000000e-01 2.000000e+00 1.670000e+01
      vertex   6.000000e-01 2.000000e+00 1.650000e+01
    endloop
  endfacet
  facet normal 0.000000e+00 1.000000e+00 -0.000000e+00
    outer loop
      vertex   6.000000e-01 2.000000e+00 1.650000e+01
      vertex   4.000000e-01 2.000000e+00 1.670000e+01
      vertex   6.000000e-01 2.000000e+00 1.670000e+01
    endloop
  endfacet
  facet normal 0.000000e+00 -1.000000e+00 0.000000e+00
    outer loop
      vertex   4.000000e-01 0.000000e+00 1.650000e+01
      vertex   6.000000e-01 0.000000e+00 1.650000e+01
      vertex   4.000000e-01 0.000000e+00 1.670000e+01
    endloop
  endfacet
  facet normal 0.000000e+00 -1.000000e+00 0.000000e+00
    outer loop
      vertex   4.000000e-01 0.000000e+00 1.670000e+01
      vertex   6.000000e-01 0.000000e+00 1.650000e+01
      vertex   6.000000e-01 0.000000e+00 1.670000e+01
    endloop
  endfacet
  facet normal -1.000000e+00 0.000000e+00 -2.311116e-31
    outer loop
      vertex   0.000000e+00 0.000000e+00 1.650000e+01
      vertex   -4.622232e-32 0.000000e+00 1.670000e+01
      vertex   0.000000e+00 2.000000e+00 1.650000e+01
    endloop
  endfacet
  facet normal -1.000000e+00 2.311116e-32 0.000000e+00
    outer loop
      vertex   0.000000e+00 2.000000e+00 1.650000e+01
      vertex   -4.622232e-32 0.000000e+00 1.670000e+01
      vertex   0.000000e+00 2.000000e+00 1.670000e+01
    endloop
  endfacet
  facet normal 0.000000e+00 0.000000e+00 -1.000000e+00
    outer loop
      vertex   2.000000e-01 0.000000e+00 1.650000e+01
      vertex   0.000000e+00 0.000000e+00 1.650000e+01
      vertex   2.000000e-01 2.000000e+00 1.650000e+01
    endloop
  endfacet
  facet normal -0.000000e+00 0.000000e+00 -1.000000e+00
    outer loop
      vertex   2.000000e-01 2.000000e+00 1.650000e+01
      vertex   0.000000e+00 0.000000e+00 1.650000e+01
      vertex   0.000000e+00 2.000000e+00 1.650000e+01
    endloop
  endfacet
  facet normal 1.000000e+00 -0.000000e+00 0.000000e+00
    outer loop
      vertex   2.000000e-01 0.000000e+00 1.670000e+01
      vertex   2.000000e-01 0.000000e+00 1.650000e+01
      vertex   2.000000e-01 2.000000e+00 1.670000e+01
    endloop
  endfacet
  facet normal 1.000000e+00 0.000000e+00 0.000000e+00
    outer loop
      vertex   2.000000e-01 2.000000e+00 1.670000e+01
      vertex   2.000000e-01 0.000000e+00 1.650000e+01
      vertex   2.000000e-01 2.000000e+00 1.650000e+01
    endloop
  endfacet
  facet normal 0.000000e+00 0.000000e+00 1.000000e+00
    outer loop
      vertex   -4.622232e-32 0.000000e+00 1.670000e+01
      vertex   2.000000e-01 0.000000e+00 1.670000e+01
      vertex   0.000000e+00 2.000000e+00 1.670000e+01
    endloop
  endfacet
  facet normal -0.000000e+00 0.000000e+00 1.000000e+00
    outer loop
      vertex   0.000000e+00 2.000000e+00 1.670000e+01
      vertex   2.000000e-01 0.000000e+00 1.670000e+01
      vertex   2.000000e-01 2.000000e+00 1.670000e+01
    endloop
  endfacet
  facet normal 0.000000e+00 1.000000e+00 0.000000e+00
    outer loop
      vertex   2.000000e-01 2.000000e+00 1.670000e+01
      vertex   2.000000e-01 2.000000e+00 1.650000e+01
      vertex   0.000000e+00 2.000000e+00 1.670000e+01
    endloop
  endfacet
  facet normal 0.000000e+00 1.000000e+00 0.000000e+00
    outer loop
      vertex   0.000000e+00 2.000000e+00 1.670000e+01
      vertex   2.000000e-01 2.000000e+00 1.650000e+01
      vertex   0.000000e+00 2.000000e+00 1.650000e+01
    endloop
  endfacet
  facet normal -0.000000e+00 -1.000000e+00 -0.000000e+00
    outer loop
      vertex   2.000000e-01 0.000000e+00 1.670000e+01
      vertex   -4.622232e-32 0.000000e+00 1.670000e+01
      vertex   2.000000e-01 0.000000e+00 1.650000e+01
    endloop
  endfacet
  facet normal 0.000000e+00 -1.000000e+00 0.000000e+00
    outer loop
      vertex   2.000000e-01 0.000000e+00 1.650000e+01
      vertex   -4.622232e-32 0.000000e+00 1.670000e+01
      vertex   0.000000e+00 0.000000e+00 1.650000e+01
    endloop
  endfacet
  facet normal 0.000000e+00 0.000000e+00 -1.000000e+00
    outer loop
      vertex   8.000000e-02 0.000000e+00 1.767000e+01
      vertex   8.000000e-02 2.000000e+00 1.767000e+01
      vertex   9.000000e-02 0.000000e+00 1.767000e+01
    endloop
  endfacet
  facet normal 0.000000e+00 0.000000e+00 -1.000000e+00
    outer loop
      vertex   9.000000e-02 0.000000e+00 1.767000e+01
      vertex   8.000000e-02 2.000000e+00 1.767000e+01
      vertex   9.000000e-02 2.000000e+00 1.767000e+01
    endloop
  endfacet
  facet normal 1.000000e+00 0.000000e+00 0.000000e+00
    outer loop
      vertex   9.000000e-02 0.000000e+00 1.767000e+01
      vertex   9.000000e-02 2.000000e+00 1.767000e+01
      vertex   9.000000e-02 0.000000e+00 1.768000e+01
    endloop
  endfacet
  facet normal 1.000000e+00 -0.000000e+00 0.000000e+00
    outer loop
      vertex   9.000000e-02 0.000000e+00 1.768000e+01
      vertex   9.000000e-02 2.000000e+00 1.767000e+01
      vertex   9.000000e-02 2.000000e+00 1.768000e+01
    endloop
  endfacet
  facet normal 0.000000e+00 -0.000000e+00 1.000000e+00
    outer loop
      vertex   9.000000e-02 0.000000e+00 1.768000e+01
      vertex   9.000000e-02 2.000000e+00 1.768000e+01
      vertex   8.000000e-02 0.000000e+00 1.768000e+01
    endloop
  endfacet
  facet normal 0.000000e+00 0.000000e+00 1.000000e+00
    outer loop
      vertex   8.000000e-02 0.000000e+00 1.768000e+01
      vertex   9.000000e-02 2.000000e+00 1.768000e+01
      vertex   8.000000e-02 2.000000e+00 1.768000e+01
    endloop
  endfacet
  facet normal -1.000000e+00 0.000000e+00 0.000000e+00
    outer loop
      vertex   8.000000e-02 0.000000e+00 1.768000e+01
      vertex   8.000000e-02 2.000000e+00 1.768000e+01
      vertex   8.000000e-02 0.000000e+00 1.767000e+01
    endloop
  endfacet
  facet normal -1.000000e+00 0.000000e+00 0.000000e+00
    outer loop
      vertex   8.000000e-02 0.000000e+00 1.767000e+01
      vertex   8.000000e-02 2.000000e+00 1.768000e+01
      vertex   8.000000e-02 2.000000e+00 1.767000e+01
    endloop
  endfacet
  facet normal 0.000000e+00 1.000000e+00 0.000000e+00
    outer loop
      vertex   8.000000e-02 2.000000e+00 1.767000e+01
      vertex   8.000000e-02 2.000000e+00 1.768000e+01
      vertex   9.000000e-02 2.000000e+00 1.767000e+01
    endloop
  endfacet
  facet normal 0.000000e+00 1.000000e+00 -0.000000e+00
    outer loop
      vertex   9.000000e-02 2.000000e+00 1.767000e+01
      vertex   8.000000e-02 2.000000e+00 1.768000e+01
      vertex   9.000000e-02 2.000000e+00 1.768000e+01
    endloop
  endfacet
  facet normal 0.000000e+00 -1.000000e+00 0.000000e+00
    outer loop
      vertex   8.000000e-02 0.000000e+00 1.767000e+01
      vertex   9.000000e-02 0.000000e+00 1.767000e+01
      vertex   8.000000e-02 0.000000e+00 1.768000e+01
    endloop
  endfacet
  facet normal 0.000000e+00 -1.000000e+00 0.000000e+00
    outer loop
      vertex   8.000000e-02 0.000000e+00 1.768000e+01
      vertex   9.000000e-02 0.000000e+00 1.767000e+01
      vertex   9.000000e-02 0.000000e+00 1.768000e+01
    endloop
  endfacet
  facet normal 0.000000e+00 0.000000e+00 -1.000000e+00
    outer loop
      vertex   2.000000e+00 0.000000e+00 1.000000e+01
      vertex   0.000000e+00 0.000000e+00 1.000000e+01
      vertex   2.000000e+00 2.000000e+00 1.000000e+01
    endloop
  endfacet
  facet normal -0.000000e+00 0.000000e+00 -1.000000e+00
    outer loop
      vertex   2.000000e+00 2.000000e+00 1.000000e+01
      vertex   0.000000e+00 0.000000e+00 1.000000e+01
      vertex   0.000000e+00 2.000000e+00 1.000000e+01
    endloop
  endfacet
  facet normal 1.000000e+00 -0.000000e+00 0.000000e+00
    outer loop
      vertex   2.000000e+00 0.000000e+00 1.200000e+01
      vertex   2.000000e+00 0.000000e+00 1.000000e+01
      vertex   2.000000e+00 2.000000e+00 1.200000e+01
    endloop
  endfacet
  facet normal 1.000000e+00 0.000000e+00 0.000000e+00
    outer loop
      vertex   2.000000e+00 2.000000e+00 1.200000e+01
      vertex   2.000000e+00 0.000000e+00 1.000000e+01
      vertex   2.000000e+00 2.000000e+00 1.000000e+01
    endloop
  endfacet
  facet normal 0.000000e+00 0.000000e+00 1.000000e+00
    outer loop
      vertex   -6.162976e-32 0.000000e+00 1.200000e+01
      vertex   2.000000e+00 0.000000e+00 1.200000e+01
      vertex   -6.162976e-32 2.000000e+00 1.200000e+01
    endloop
  endfacet
  facet normal -0.000000e+00 0.000000e+00 1.000000e+00
    outer loop
      vertex   -6.162976e-32 2.000000e+00 1.200000e+01
      vertex   2.000000e+00 0.000000e+00 1.200000e+01
      vertex   2.000000e+00 2.000000e+00 1.200000e+01
    endloop
  endfacet
  facet normal -1.000000e+00 0.000000e+00 -3.081488e-32
    outer loop
      vertex   0.000000e+00 0.000000e+00 1.000000e+01
      vertex   -6.162976e-32 0.000000e+00 1.200000e+01
      vertex   0.000000e+00 2.000000e+00 1.000000e+01
    endloop
  endfacet
  facet normal -1.000000e+00 0.000000e+00 -3.081488e-32
    outer loop
      vertex   0.000000e+00 2.000000e+00 1.000000e+01
      vertex   -6.162976e-32 0.000000e+00 1.200000e+01
      vertex   -6.162976e-32 2.000000e+00 1.200000e+01
    endloop
  endfacet
  facet normal 0.000000e+00 1.000000e+00 -0.000000e+00
    outer loop
      vertex   0.000000e+00 2.000000e+00 1.000000e+01
      vertex   -6.162976e-32 2.000000e+00 1.200000e+01
      vertex   2.000000e+00 2.000000e+00 1.000000e+01
    endloop
  endfacet
  facet normal 0.000000e+00 1.000000e+00 -0.000000e+00
    outer loop
      vertex   2.000000e+00 2.000000e+00 1.000000e+01
      vertex   -6.162976e-32 2.000000e+00 1.200000e+01
      vertex   2.000000e+00 2.000000e+00 1.200000e+01
    endloop
  endfacet
  facet normal 0.000000e+00 -1.000000e+00 0.000000e+00
    outer loop
      vertex   0.000000e+00 0.000000e+00 1.000000e+01
      vertex   2.000000e+00 0.000000e+00 1.000000e+01
      vertex   -6.162976e-32 0.000000e+00 1.200000e+01
    endloop
  endfacet
  facet normal 0.000000e+00 -1.000000e+00 0.000000e+00
    outer loop
      vertex   -6.162976e-32 0.000000e+00 1.200000e+01
      vertex   2.000000e+00 0.000000e+00 1.000000e+01
      vertex   2.000000e+00 0.000000e+00 1.200000e+01
    endloop
  endfacet
  facet normal 1.000000e+00 0.000000e+00 0.000000e+00
    outer loop
      vertex   1.050000e-01 0.000000e+00 1.755000e+01
      vertex   1.050000e-01 2.000000e+00 1.755000e+01
      vertex   1.050000e-01 0.000000e+00 1.757500e+01
    endloop
  endfacet
  facet normal 1.000000e+00 -0.000000e+00 0.000000e+00
    outer loop
      vertex   1.050000e-01 0.000000e+00 1.757500e+01
      vertex   1.050000e-01 2.000000e+00 1.755000e+01
      vertex   1.050000e-01 2.000000e+00 1.757500e+01
    endloop
  endfacet
  facet normal 0.000000e+00 -0.000000e+00 1.000000e+00
    outer loop
      vertex   1.050000e-01 0.000000e+00 1.757500e+01
      vertex   1.050000e-01 2.000000e+00 1.757500e+01
      vertex   8.000000e-02 0.000000e+00 1.757500e+01
    endloop
  endfacet
  facet normal 0.000000e+00 0.000000e+00 1.000000e+00
    outer loop
      vertex   8.000000e-02 0.000000e+00 1.757500e+01
      vertex   1.050000e-01 2.000000e+00 1.757500e+01
      vertex   8.000000e-02 2.000000e+00 1.757500e+01
    endloop
  endfacet
  facet normal -1.000000e+00 0.000000e+00 0.000000e+00
    outer loop
      vertex   8.000000e-02 0.000000e+00 1.757500e+01
      vertex   8.000000e-02 2.000000e+00 1.757500e+01
      vertex   8.000000e-02 0.000000e+00 1.755000e+01
    endloop
  endfacet
  facet normal -1.000000e+00 0.000000e+00 0.000000e+00
    outer loop
      vertex   8.000000e-02 0.000000e+00 1.755000e+01
      vertex   8.000000e-02 2.000000e+00 1.757500e+01
      vertex   8.000000e-02 2.000000e+00 1.755000e+01
    endloop
  endfacet
  facet normal 0.000000e+00 0.000000e+00 -1.000000e+00
    outer loop
      vertex   8.000000e-02 0.000000e+00 1.755000e+01
      vertex   8.000000e-02 2.000000e+00 1.755000e+01
      vertex   1.050000e-01 0.000000e+00 1.755000e+01
    endloop
  endfacet
  facet normal 0.000000e+00 0.000000e+00 -1.000000e+00
    outer loop
      vertex   1.050000e-01 0.000000e+00 1.755000e+01
      vertex   8.000000e-02 2.000000e+00 1.755000e+01
      vertex   1.050000e-01 2.000000e+00 1.755000e+01
    endloop
  endfacet
  facet normal 0.000000e+00 1.000000e+00 0.000000e+00
    outer loop
      vertex   8.000000e-02 2.000000e+00 1.755000e+01
      vertex   8.000000e-02 2.000000e+00 1.757500e+01
      vertex   1.050000e-01 2.000000e+00 1.755000e+01
    endloop
  endfacet
  facet normal 0.000000e+00 1.000000e+00 -0.000000e+00
    outer loop
      vertex   1.050000e-01 2.000000e+00 1.755000e+01
      vertex   8.000000e-02 2.000000e+00 1.757500e+01
      vertex   1.050000e-01 2.000000e+00 1.757500e+01
    endloop
  endfacet
  facet normal 0.000000e+00 -1.000000e+00 0.000000e+00
    outer loop
      vertex   8.000000e-02 0.000000e+00 1.755000e+01
      vertex   1.050000e-01 0.000000e+00 1.755000e+01
      vertex   8.000000e-02 0.000000e+00 1.757500e+01
    endloop
  endfacet
  facet normal 0.000000e+00 -1.000000e+00 0.000000e+00
    outer loop
      vertex   8.000000e-02 0.000000e+00 1.757500e+01
      vertex   1.050000e-01 0.000000e+00 1.755000e+01
      vertex   1.050000e-01 0.000000e+00 1.757500e+01
    endloop
  endfacet
  facet normal -1.000000e+00 0.000000e+00 0.000000e+00
    outer loop
      vertex   0.000000e+00 0.000000e+00 0.000000e+00
      vertex   0.000000e+00 0.000000e+00 5.000000e+00
      vertex   0.000000e+00 2.000000e+00 0.000000e+00
    endloop
  endfacet
  facet normal -1.000000e+00 0.000000e+00 0.000000e+00
    outer loop
      vertex   0.000000e+00 2.000000e+00 0.000000e+00
      vertex   0.000000e+00 0.000000e+00 5.000000e+00
      vertex   0.000000e+00 2.000000e+00 5.000000e+00
    endloop
  endfacet
  facet normal 0.000000e+00 0.000000e+00 -1.000000e+00
    outer loop
      vertex   5.000000e+00 0.000000e+00 0.000000e+00
      vertex   0.000000e+00 0.000000e+00 0.000000e+00
      vertex   5.000000e+00 2.000000e+00 0.000000e+00
    endloop
  endfacet
  facet normal -0.000000e+00 0.000000e+00 -1.000000e+00
    outer loop
      vertex   5.000000e+00 2.000000e+00 0.000000e+00
      vertex   0.000000e+00 0.000000e+00 0.000000e+00
      vertex   0.000000e+00 2.000000e+00 0.000000e+00
    endloop
  endfacet
  facet normal 1.000000e+00 -0.000000e+00 0.000000e+00
    outer loop
      vertex   5.000000e+00 0.000000e+00 5.000000e+00
      vertex   5.000000e+00 0.000000e+00 0.000000e+00
      vertex   5.000000e+00 2.000000e+00 5.000000e+00
    endloop
  endfacet
  facet normal 1.000000e+00 0.000000e+00 0.000000e+00
    outer loop
      vertex   5.000000e+00 2.000000e+00 5.000000e+00
      vertex   5.000000e+00 0.000000e+00 0.000000e+00
      vertex   5.000000e+00 2.000000e+00 0.000000e+00
    endloop
  endfacet
  facet normal 0.000000e+00 0.000000e+00 1.000000e+00
    outer loop
      vertex   0.000000e+00 0.000000e+00 5.000000e+00
      vertex   5.000000e+00 0.000000e+00 5.000000e+00
      vertex   0.000000e+00 2.000000e+00 5.000000e+00
    endloop
  endfacet
  facet normal -0.000000e+00 0.000000e+00 1.000000e+00
    outer loop
      vertex   0.000000e+00 2.000000e+00 5.000000e+00
      vertex   5.000000e+00 0.000000e+00 5.000000e+00
      vertex   5.000000e+00 2.000000e+00 5.000000e+00
    endloop
  endfacet
  facet normal 0.000000e+00 1.000000e+00 0.000000e+00
    outer loop
      vertex   5.000000e+00 2.000000e+00 5.000000e+00
      vertex   5.000000e+00 2.000000e+00 0.000000e+00
      vertex   0.000000e+00 2.000000e+00 5.000000e+00
    endloop
  endfacet
  facet normal 0.000000e+00 1.000000e+00 0.000000e+00
    outer loop
      vertex   0.000000e+00 2.000000e+00 5.000000e+00
      vertex   5.000000e+00 2.000000e+00 0.000000e+00
      vertex   0.000000e+00 2.000000e+00 0.000000e+00
    endloop
  endfacet
  facet normal -0.000000e+00 -1.000000e+00 -0.000000e+00
    outer loop
      vertex   5.000000e+00 0.000000e+00 5.000000e+00
      vertex   0.000000e+00 0.000000e+00 5.000000e+00
      vertex   5.000000e+00 0.000000e+00 0.000000e+00
    endloop
  endfacet
  facet normal 0.000000e+00 -1.000000e+00 0.000000e+00
    outer loop
      vertex   5.000000e+00 0.000000e+00 0.000000e+00
      vertex   0.000000e+00 0.000000e+00 5.000000e+00
      vertex   0.000000e+00 0.000000e+00 0.000000e+00
    endloop
  endfacet
  facet normal 0.000000e+00 0.000000e+00 -1.000000e+00
    outer loop
      vertex   1.700000e+00 0.000000e+00 1.500000e+01
      vertex   1.200000e+00 0.000000e+00 1.500000e+01
      vertex   1.700000e+00 2.000000e+00 1.500000e+01
    endloop
  endfacet
  facet normal -0.000000e+00 0.000000e+00 -1.000000e+00
    outer loop
      vertex   1.700000e+00 2.000000e+00 1.500000e+01
      vertex   1.200000e+00 0.000000e+00 1.500000e+01
      vertex   1.200000e+00 2.000000e+00 1.500000e+01
    endloop
  endfacet
  facet normal 1.000000e+00 -0.000000e+00 0.000000e+00
    outer loop
      vertex   1.700000e+00 0.000000e+00 1.550000e+01
      vertex   1.700000e+00 0.000000e+00 1.500000e+01
      vertex   1.700000e+00 2.000000e+00 1.550000e+01
    endloop
  endfacet
  facet normal 1.000000e+00 0.000000e+00 0.000000e+00
    outer loop
      vertex   1.700000e+00 2.000000e+00 1.550000e+01
      vertex   1.700000e+00 0.000000e+00 1.500000e+01
      vertex   1.700000e+00 2.000000e+00 1.500000e+01
    endloop
  endfacet
  facet normal 0.000000e+00 0.000000e+00 1.000000e+00
    outer loop
      vertex   1.200000e+00 0.000000e+00 1.550000e+01
      vertex   1.700000e+00 0.000000e+00 1.550000e+01
      vertex   1.200000e+00 2.000000e+00 1.550000e+01
    endloop
  endfacet
  facet normal -0.000000e+00 0.000000e+00 1.000000e+00
    outer loop
      vertex   1.200000e+00 2.000000e+00 1.550000e+01
      vertex   1.700000e+00 0.000000e+00 1.550000e+01
      vertex   1.700000e+00 2.000000e+00 1.550000e+01
    endloop
  endfacet
  facet normal -1.000000e+00 0.000000e+00 0.000000e+00
    outer loop
      vertex   1.200000e+00 0.000000e+00 1.500000e+01
      vertex   1.200000e+00 0.000000e+00 1.550000e+01
      vertex   1.200000e+00 2.000000e+00 1.500000e+01
    endloop
  endfacet
  facet normal -1.000000e+00 0.000000e+00 0.000000e+00
    outer loop
      vertex   1.200000e+00 2.000000e+00 1.500000e+01
      vertex   1.200000e+00 0.000000e+00 1.550000e+01
      vertex   1.200000e+00 2.000000e+00 1.550000e+01
    endloop
  endfacet
  facet normal 0.000000e+00 1.000000e+00 0.000000e+00
    outer loop
      vertex   1.200000e+00 2.000000e+00 1.500000e+01
      vertex   1.200000e+00 2.000000e+00 1.550000e+01
      vertex   1.700000e+00 2.000000e+00 1.500000e+01
    endloop
  endfacet
  facet normal 0.000000e+00 1.000000e+00 -0.000000e+00
    outer loop
      vertex   1.700000e+00 2.000000e+00 1.500000e+01
      vertex   1.200000e+00 2.000000e+00 1.550000e+01
      vertex   1.700000e+00 2.000000e+00 1.550000e+01
    endloop
  endfacet
  facet normal 0.000000e+00 -1.000000e+00 0.000000e+00
    outer loop
      vertex   1.200000e+00 0.000000e+00 1.500000e+01
      vertex   1.700000e+00 0.000000e+00 1.500000e+01
      vertex   1.200000e+00 0.000000e+00 1.550000e+01
    endloop
  endfacet
  facet normal 0.000000e+00 -1.000000e+00 0.000000e+00
    outer loop
      vertex   1.200000e+00 0.000000e+00 1.550000e+01
      vertex   1.700000e+00 0.000000e+00 1.500000e+01
      vertex   1.700000e+00 0.000000e+00 1.550000e+01
    endloop
  endfacet
  facet normal 0.000000e+00 0.000000e+00 -1.000000e+00
    outer loop
      vertex   0.000000e+00 0.000000e+00 1.755000e+01
      vertex   0.000000e+00 2.000000e+00 1.755000e+01
      vertex   2.500000e-02 0.000000e+00 1.755000e+01
    endloop
  endfacet
  facet normal 0.000000e+00 0.000000e+00 -1.000000e+00
    outer loop
      vertex   2.500000e-02 0.000000e+00 1.755000e+01
      vertex   0.000000e+00 2.000000e+00 1.755000e+01
      vertex   2.500000e-02 2.000000e+00 1.755000e+01
    endloop
  endfacet
  facet normal 1.000000e+00 0.000000e+00 0.000000e+00
    outer loop
      vertex   2.500000e-02 0.000000e+00 1.755000e+01
      vertex   2.500000e-02 2.000000e+00 1.755000e+01
      vertex   2.500000e-02 0.000000e+00 1.757500e+01
    endloop
  endfacet
  facet normal 1.000000e+00 -0.000000e+00 0.000000e+00
    outer loop
      vertex   2.500000e-02 0.000000e+00 1.757500e+01
      vertex   2.500000e-02 2.000000e+00 1.755000e+01
      vertex   2.500000e-02 2.000000e+00 1.757500e+01
    endloop
  endfacet
  facet normal 0.000000e+00 -0.000000e+00 1.000000e+00
    outer loop
      vertex   2.500000e-02 0.000000e+00 1.757500e+01
      vertex   2.500000e-02 2.000000e+00 1.757500e+01
      vertex   0.000000e+00 0.000000e+00 1.757500e+01
    endloop
  endfacet
  facet normal 0.000000e+00 0.000000e+00 1.000000e+00
    outer loop
      vertex   0.000000e+00 0.000000e+00 1.757500e+01
      vertex   2.500000e-02 2.000000e+00 1.757500e+01
      vertex   0.000000e+00 2.000000e+00 1.757500e+01
    endloop
  endfacet
  facet normal -1.000000e+00 0.000000e+00 0.000000e+00
    outer loop
      vertex   0.000000e+00 0.000000e+00 1.757500e+01
      vertex   0.000000e+00 2.000000e+00 1.757500e+01
      vertex   0.000000e+00 0.000000e+00 1.755000e+01
    endloop
  endfacet
  facet normal -1.000000e+00 0.000000e+00 0.000000e+00
    outer loop
      vertex   0.000000e+00 0.000000e+00 1.755000e+01
      vertex   0.000000e+00 2.000000e+00 1.757500e+01
      vertex   0.000000e+00 2.000000e+00 1.755000e+01
    endloop
  endfacet
  facet normal 0.000000e+00 1.000000e+00 0.000000e+00
    outer loop
      vertex   0.000000e+00 2.000000e+00 1.755000e+01
      vertex   0.000000e+00 2.000000e+00 1.757500e+01
      vertex   2.500000e-02 2.000000e+00 1.755000e+01
    endloop
  endfacet
  facet normal 0.000000e+00 1.000000e+00 -0.000000e+00
    outer loop
      vertex   2.500000e-02 2.000000e+00 1.755000e+01
      vertex   0.000000e+00 2.000000e+00 1.757500e+01
      vertex   2.500000e-02 2.000000e+00 1.757500e+01
    endloop
  endfacet
  facet normal 0.000000e+00 -1.000000e+00 0.000000e+00
    outer loop
      vertex   0.000000e+00 0.000000e+00 1.755000e+01
      vertex   2.500000e-02 0.000000e+00 1.755000e+01
      vertex   0.000000e+00 0.000000e+00 1.757500e+01
    endloop
  endfacet
  facet normal 0.000000e+00 -1.000000e+00 0.000000e+00
    outer loop
      vertex   0.000000e+00 0.000000e+00 1.757500e+01
      vertex   2.500000e-02 0.000000e+00 1.755000e+01
      vertex   2.500000e-02 0.000000e+00 1.757500e+01
    endloop
  endfacet
endsolid
